<svg xmlns="http://www.w3.org/2000/svg" width="121.388" height="33.563"><path d="M30.927 15.014c-.339-.352-.735-.238-.854-.208-.192.048-.357.156-1.009.624-.38.271-.595.447-1.118.807-.177.12-.397.308-.47.347-.053-4.224-.06-7.25-.072-9.38-.006-1.133-.172-2.027-.595-2.577-.583-.762-1.671-.751-1.893-.74-.123.004-.423.074-.573.104-.66.124-2.139 1.1-3.344 2.175-2.291 2.044-5.345 5.085-6.527 6.282-.264.268-.538.55-.814.832-.707.709-1.407 1.427-2.102 2.139l-.224-.13c-.319-.203-.589-.33-.868-.33-.062 0-.127.007-.186.018-.25.049-.52.196-1.017.765-.3.336-.604.719-.913 1.133-.464.633-.532.78-.569.942-.092.431.037.849.354 1.189a404.387 404.387 0 00-4.591 4.972c-.076.082-.16.168-.233.244-.648.675-1.101 1.184-1.385 1.56-.33.436-.541.855-.625 1.24-.087.423-.033.801.154 1.133.21.35.571.548 1 .547.096.001.198-.01.305-.029.625-.122 1.334-.536 2.185-1.295.813-.718 1.496-1.568 2.263-2.55.708-.91 1.985-2.595 3.823-5.032.23.016.652-.003.894-.003a10.907 10.907 0 002.708-.342c.937-.235 1.663-.463 2.943-1.019 1.197-.524 1.593-.771 2.575-1.436.903-.608 1.525-1.354 1.664-1.824.078-.25.241-1.174-.504-.97-.171.048-2.027.941-2.671 1.129-1.705.496-3.02.697-4.549.604.239-.33 4.655-6.155 6.002-7.302 1.015-.863 2.165-.053 2.166 1.295l.01 9.597c.001.655-.084 1.217.117 1.691.243.562.643.84 1.162.896.113.011.235-.011.358-.037.532-.103 1.249-.533 2.332-1.39.97-.774 2.155-1.877 2.996-2.738 1.207-1.24 1.715-1.749 1.819-2.084.125-.41.005-.718-.124-.85" fill="#df0714"/><path d="M10.398 2.479S18.913.999 26.195 0l-22.8.024A3.4 3.4 0 000 3.429l.019 19.005 2.447-12.206c.82-4.594 3.672-7.138 7.932-7.75m12.904 28.609s-8.517 1.48-15.801 2.476L30.3 33.54a3.405 3.405 0 003.399-3.406l-.022-19.003-2.45 12.207c-.816 4.595-3.667 7.136-7.925 7.748" fill="#88b620"/><path d="M46.072 15.082l-1.517.003 1.515-2.794.998-1.852.033.001.486 4.641-1.515.002zm.183-7.293l-.19.328-6.577 11.417 2.617-.004 1.343-2.414 2.625-.002 1.764-.002.256 2.414 2.695-.004-1.666-11.737-2.867.004z" fill="#88b620" fill-rule="evenodd"/><path d="M44.867 14.897l2.515-.001-.407-3.89-2.108 3.89zm2.928.371l-3.553.003 2.718-5.017h.31l.525 5.014zm.464 4.069l2.318-.004-1.615-11.361H46.36l-6.547 11.374 2.184-.003 1.342-2.412 4.668-.008.252 2.414zm2.745.372l-3.08.002-.252-2.413-4.115.005-1.34 2.413-3.05.003 6.98-12.117 3.137-.004 1.72 12.111z" fill="#fff"/><path d="M60.814 10.958a1.423 1.423 0 01-.702.985c-.373.215-.819.321-1.335.322l-1.344.014-1.54.013.51-2.582h1.028l1.82-.004c1.063 0 1.598.307 1.597.925 0 .07-.014.178-.034.327m-.72 4.705c-.25 1.146-1.015 1.72-2.288 1.721l-.365.001-2.693.001.678-3.137 2.01-.001 1.166-.003c.436.001.8.093 1.091.276.288.18.433.458.434.832a4.024 4.024 0 01-.033.31m.148-7.989l-2.814.001-2.969.004-2.525 11.741 5.04-.005c.16.002.32-.001.468-.007a9.932 9.932 0 001.425-.122c.482-.083.874-.193 1.169-.337.295-.145.605-.344.933-.604.39-.306.72-.672.992-1.092.266-.42.452-.863.546-1.327.071-.29.102-.585.101-.883 0-.948-.445-1.601-1.329-1.961a4.42 4.42 0 001.215-.804c.355-.331.613-.861.77-1.591a3.89 3.89 0 00.065-.642 2.282 2.282 0 00-.71-1.684c-.473-.46-1.265-.688-2.377-.687" fill="#88b620" fill-rule="evenodd"/><path d="M56.555 9.895l-.435 2.206 2.654-.02c.484 0 .903-.102 1.248-.3a1.22 1.22 0 00.607-.86 1.59 1.59 0 00.031-.288c.002-.184 0-.742-1.406-.743l-2.699.005zm-.886 2.584l.578-2.955 3.005-.006c1.472-.002 1.782.607 1.78 1.115.002.077-.01.19-.034.353-.106.503-.374.875-.791 1.118-.4.23-.882.349-1.43.347l-3.108.028zm-.691 4.721l2.826-.004c1.188 0 1.876-.517 2.106-1.57.025-.176.03-.247.03-.276-.002-.306-.113-.527-.348-.674-.257-.16-.59-.243-.99-.242l-3.024.004-.6 2.762zm2.827.368l-3.285.003.757-3.506 3.325-.005c.47 0 .87.1 1.187.301.345.22.52.552.521.992 0 .04-.003.118-.033.34-.273 1.246-1.103 1.873-2.472 1.875m-5.64 1.663l4.807-.005c.16 0 .316 0 .462-.005a9.707 9.707 0 001.399-.117c.461-.078.842-.188 1.121-.323a5.24 5.24 0 00.899-.58c.374-.295.692-.648.946-1.048a3.71 3.71 0 00.526-1.262 3.82 3.82 0 00.097-.85c0-.87-.398-1.453-1.214-1.786l-.401-.161.395-.18a4.307 4.307 0 001.167-.774c.325-.301.566-.805.715-1.491.036-.243.059-.449.06-.603 0-.613-.216-1.12-.654-1.55-.437-.422-1.19-.638-2.247-.636l-5.633.005-2.446 11.366zm4.807.37l-5.27.007 2.606-12.114 5.935-.005c1.156-.003 2 .246 2.505.74a2.46 2.46 0 01.769 1.816 4.47 4.47 0 01-.068.673c-.166.772-.447 1.34-.827 1.697a4.39 4.39 0 01-.924.663c.729.415 1.095 1.07 1.095 1.962.001.315-.034.629-.104.93a4.12 4.12 0 01-.574 1.383c-.277.435-.625.82-1.03 1.14a5.43 5.43 0 01-.968.622c-.31.154-.724.273-1.22.358a10.9 10.9 0 01-1.452.12c-.15.007-.306.007-.473.007" fill="#fff"/><path d="M72.869 13.707c-.168.78-.405 1.44-.719 1.98-.314.538-.661.96-1.047 1.27-.39.308-.784.532-1.187.66-.096.028-.188.055-.278.078a3.524 3.524 0 01-.884.117c-.42 0-.823-.082-1.204-.248-.384-.165-.697-.45-.947-.853-.245-.402-.374-.94-.375-1.607 0-.433.053-.898.166-1.39.169-.777.409-1.434.725-1.977.317-.54.672-.966 1.06-1.277a3.924 3.924 0 011.187-.658c.09-.026.175-.053.262-.077a3.57 3.57 0 01.898-.116c.42-.003.82.08 1.197.242.377.166.69.448.937.849.248.404.371.936.375 1.6a6.555 6.555 0 01-.166 1.407m.076-5.855c-.69-.22-1.35-.33-1.979-.328-.407 0-.855.048-1.34.14a6.625 6.625 0 00-.413.09c-.645.148-1.327.44-2.037.87s-1.365 1.067-1.96 1.906c-.597.842-1.033 1.905-1.307 3.186a8.92 8.92 0 00-.216 1.848c.006 1.16.272 2.063.802 2.708.528.645 1.143 1.078 1.836 1.297a6.667 6.667 0 001.98.326 7.307 7.307 0 001.327-.14c.136-.023.273-.054.416-.084.646-.152 1.329-.442 2.044-.872.713-.432 1.367-1.067 1.96-1.91.596-.838 1.025-1.9 1.296-3.183a9.03 9.03 0 00.212-1.865c0-1.157-.263-2.057-.793-2.696-.528-.644-1.14-1.073-1.828-1.293" fill="#88b620" fill-rule="evenodd"/><path d="M70.526 9.793c-.271 0-.557.04-.853.113-.082.025-.167.048-.252.073a3.628 3.628 0 00-1.125.63c-.373.295-.713.706-1.013 1.222-.31.525-.545 1.17-.707 1.923a6.14 6.14 0 00-.161 1.349c.001.63.116 1.138.349 1.51.23.377.51.63.86.78.601.262 1.254.304 1.966.123a3.601 3.601 0 001.395-.704c.365-.295.704-.705 1.003-1.22.302-.518.537-1.166.7-1.923.107-.494.16-.958.16-1.371-.002-.624-.118-1.13-.345-1.5-.227-.365-.514-.627-.855-.777a2.837 2.837 0 00-1.122-.228M68.755 18a3.19 3.19 0 01-1.28-.265c-.414-.18-.759-.493-1.029-.927-.267-.433-.402-1.007-.403-1.705a6.445 6.445 0 01.17-1.43c.167-.788.42-1.472.746-2.03.326-.557.699-1.004 1.106-1.327a3.894 3.894 0 011.516-.771c.794-.205 1.54-.156 2.215.135.414.18.754.479 1.023.912.265.43.402 1.012.401 1.704a6.77 6.77 0 01-.17 1.451c-.169.795-.417 1.48-.739 2.034-.322.553-.692 1-1.095 1.321a3.948 3.948 0 01-2.461.898m2.213-10.289a7.125 7.125 0 00-1.308.135 11.06 11.06 0 00-.407.088c-.622.145-1.288.431-1.98.85-.683.415-1.327 1.036-1.903 1.856-.577.817-1.011 1.864-1.28 3.116a8.584 8.584 0 00-.209 1.805c0 1.114.258 1.986.758 2.595.505.614 1.095 1.029 1.747 1.235.677.21 1.323.318 1.927.318.386 0 .818-.048 1.29-.137a5.01 5.01 0 00.406-.087c.626-.143 1.297-.429 1.994-.845.687-.416 1.33-1.039 1.903-1.855.577-.818 1.002-1.864 1.268-3.119.14-.676.209-1.29.209-1.825-.002-1.105-.28-1.966-.753-2.581a3.499 3.499 0 00-1.739-1.23 6.326 6.326 0 00-1.923-.319m-2.655 12.37c-.642 0-1.328-.11-2.035-.334-.73-.226-1.373-.685-1.93-1.355-.553-.677-.84-1.627-.84-2.83 0-.583.073-1.22.217-1.882.28-1.303.734-2.398 1.34-3.256.609-.858 1.288-1.519 2.013-1.959.728-.439 1.43-.74 2.092-.894.143-.034.284-.065.421-.089a7.36 7.36 0 011.375-.143 6.74 6.74 0 012.035.336c.724.229 1.368.685 1.915 1.35.555.674.838 1.621.838 2.815.001.557-.071 1.2-.216 1.902-.277 1.307-.722 2.4-1.327 3.254-.607.86-1.285 1.519-2.017 1.961-.73.44-1.434.74-2.098.893a6.965 6.965 0 01-.425.089c-.49.093-.95.142-1.358.142" fill="#fff"/><path d="M85.72 8.07c-.645-.357-1.467-.537-2.47-.536a6.569 6.569 0 00-2.243.397 6.352 6.352 0 00-1.997 1.186 7.242 7.242 0 00-1.582 1.956c-.443.775-.771 1.668-.99 2.67a9.12 9.12 0 00-.216 1.898c0 1.376.388 2.431 1.16 3.162.77.735 1.83 1.103 3.177 1.103a6.6 6.6 0 002.045-.314 6.036 6.036 0 001.719-.891 6.594 6.594 0 001.361-1.379 8.093 8.093 0 00.976-1.761l-2.492.002a3.964 3.964 0 01-.756 1.206 3.07 3.07 0 01-1.062.752 3.283 3.283 0 01-1.282.252c-.766 0-1.33-.234-1.698-.7-.37-.469-.552-1.094-.562-1.879a6.354 6.354 0 01.162-1.422c.217-1.015.544-1.833.982-2.45.44-.617.907-1.049 1.406-1.291.501-.243.982-.364 1.444-.367.893 0 1.478.197 1.745.587.267.389.422.871.463 1.441l2.493-.004c.021-.217.032-.386.031-.507 0-.608-.142-1.188-.425-1.743-.282-.556-.744-1.01-1.39-1.369" fill="#88b620" fill-rule="evenodd"/><path d="M83.25 7.721c-.748 0-1.481.131-2.178.384a6.36 6.36 0 00-1.941 1.151 7.107 7.107 0 00-1.544 1.911c-.427.754-.753 1.635-.966 2.614a9.016 9.016 0 00-.211 1.857c0 1.318.371 2.34 1.099 3.033.736.695 1.758 1.049 3.05 1.049a6.363 6.363 0 001.987-.307 5.838 5.838 0 001.668-.863c.498-.372.94-.822 1.318-1.337.329-.448.613-.94.848-1.465h-2.09c-.195.446-.445.83-.745 1.15a3.28 3.28 0 01-1.124.795 3.461 3.461 0 01-1.355.267c-.821.001-1.441-.26-1.846-.774-.387-.495-.59-1.164-.601-1.99.001-.484.056-.976.171-1.465.218-1.034.556-1.883 1.008-2.519.456-.64.952-1.094 1.478-1.349.523-.253 1.038-.383 1.525-.383.967 0 1.588.216 1.898.666.257.374.424.831.482 1.357h2.15a3.611 3.611 0 00-.389-1.981c-.263-.52-.704-.955-1.313-1.29-.613-.341-1.414-.512-2.38-.511m-2.693 12.37c-1.387.002-2.496-.389-3.305-1.151-.805-.769-1.215-1.878-1.216-3.3 0-.607.075-1.26.223-1.937.22-1.016.555-1.932 1.005-2.722a7.573 7.573 0 011.622-2.006 6.678 6.678 0 012.058-1.219 6.677 6.677 0 012.306-.406c1.029-.002 1.892.186 2.56.557.675.371 1.167.859 1.467 1.444.295.58.444 1.196.444 1.829a5.39 5.39 0 01-.03.526l-.021.167-2.831.004-.012-.174c-.041-.533-.186-.986-.435-1.348-.231-.334-.765-.504-1.591-.502-.43 0-.89.115-1.361.344-.468.228-.918.643-1.338 1.229-.42.594-.737 1.397-.947 2.385-.11.466-.163.927-.163 1.384.009.736.187 1.33.525 1.762.332.426.839.63 1.55.629a3.12 3.12 0 001.213-.236c.371-.158.705-.395.994-.707.295-.313.536-.7.723-1.152l.05-.114 2.89-.005-.103.258a8.3 8.3 0 01-1.002 1.801 6.63 6.63 0 01-1.398 1.417 6.264 6.264 0 01-1.774.922 6.81 6.81 0 01-2.103.321" fill="#fff"/><path d="M95.059 15.931c-.114.567-.371.978-.775 1.23-.346.218-.825.345-1.439.375a5.562 5.562 0 01-.329.01l-1.973.002.743-3.436 1.555-.003h.753c1.03-.001 1.546.395 1.547 1.185.002.14-.028.353-.082.637m-.476-3.854l-1.745.002h-1.105l.905-4.24-2.485.005-2.528 11.736 5.22-.004.224.002a4.8 4.8 0 001.6-.264A4.159 4.159 0 0096 18.555a4.51 4.51 0 00.995-1.194c.272-.465.465-.982.585-1.546.052-.254.078-.529.078-.836 0-.778-.23-1.455-.684-2.036-.452-.579-1.25-.867-2.392-.867" fill="#88b620" fill-rule="evenodd"/><path d="M90.774 17.363l1.744-.002c.106-.002.214-.005.317-.01.578-.03 1.033-.148 1.35-.348.36-.227.587-.592.69-1.108.054-.272.08-.474.08-.6-.002-.431-.14-1.001-1.36-.997l-2.16.001-.66 3.064zm1.741.368l-2.202.004.822-3.81 2.46-.002c1.432-.004 1.73.745 1.732 1.372 0 .151-.028.374-.088.675-.121.613-.411 1.068-.856 1.349-.373.235-.884.369-1.529.406-.11.003-.224.008-.339.006m-4.66 1.664l5.214-.005a4.706 4.706 0 001.539-.252 4.029 4.029 0 001.274-.724 4.39 4.39 0 00.953-1.148c.26-.447.45-.946.56-1.492.052-.235.077-.503.077-.795-.002-.731-.215-1.378-.642-1.92-.415-.528-1.172-.798-2.247-.796l-3.08.002.905-4.24-2.105.003-2.448 11.367zm5.214.365l-5.676.008 2.609-12.113 2.866-.004-.908 4.243 2.624-.005c1.195-.001 2.049.315 2.539.937.479.613.722 1.337.72 2.154.002.314-.028.609-.083.873a5.27 5.27 0 01-.603 1.601c-.275.48-.627.899-1.035 1.244a4.36 4.36 0 01-1.392.792 5.038 5.038 0 01-1.66.27" fill="#fff"/><path d="M111.365 7.72l-3.215.002-5.57 4.783 1.019-4.778-2.485.002-2.527 11.742 2.494-.004.856-3.971 1.408-1.177 2.579 5.143 3.198-.003-3.656-6.928 5.899-4.811z" fill="#88b620" fill-rule="evenodd"/><path d="M106.035 19.275l2.78-.005-3.585-6.786 5.613-4.58-2.623.006-5.94 5.095 1.093-5.091-2.106.001-2.447 11.367 2.11-.003.84-3.885 1.637-1.369 2.628 5.25zm3.397.371l-3.624.003-2.524-5.037-1.179.986-.876 4.056-2.874.002 2.612-12.112 2.865-.005-.955 4.464 5.205-4.47 3.807-.003-6.187 5.048 3.73 7.068z" fill="#fff"/><path d="M116.455 15.107l-1.517.002 1.517-2.795.999-1.849.031-.001.489 4.643h-1.519zm3.052-7.296l-2.87.003-.188.33-6.576 11.414 2.616-.002 1.341-2.417h2.63l1.763-.003.252 2.413 2.699-.003-1.667-11.735z" fill="#88b620" fill-rule="evenodd"/><path d="M115.25 14.923l2.518-.002-.408-3.888-2.11 3.89zm2.93.368l-3.553.005 2.72-5.017h.307l.526 5.012zm.464 4.07l2.315-.002-1.615-11.362-2.597.002-6.553 11.37h2.186l1.34-2.416 4.67-.005.254 2.414zm2.744.37l-3.079.002-.254-2.41-4.115.006-1.338 2.412-3.05.002 6.975-12.114 3.14-.006 1.72 12.108z" fill="#fff"/><path d="M52.697 28.313l-.003-2.245-2.306.005.003 2.242h-1.272l-.006-5.056 1.271-.004.005 1.803 2.304-.003-.001-1.8 1.271-.002.008 5.059-1.274.001z" fill="#88b620"/><path d="M54.104 23.13H52.95l-.12.002-.281-.002.002.247v.105l.003 1.451-2.029.003-.001-1.453v-.349h-.279l-.119.002h-1.155l.002.245v.106l.002 4.602.003.104v.247l.278-.002.12.001.755-.001.12.001.28-.001-.002-.244v-.105l-.003-1.894 2.028-.003.004 1.893v.349l.278.003.12.001.757-.004.117.001h.278v-.245l.002-.107-.006-4.603-.001-.106v-.244zm-.28.244v.108l.007 4.602-.001.107h-.119l-.755-.002h-.12v-.105l-.002-2.137-2.585.002v2.245h-.118l-.754.002h-.118l-.003-.107-.005-4.603v-.107h.121l.755.002.12-.002v1.803l2.587-.004-.003-1.696-.001-.105h.121l.754-.001.119-.002z" fill="#fff"/><path d="M70.057 25.153c.266 0 .459-.05.558-.136a.427.427 0 00.153-.349c0-.226-.086-.261-.121-.275a1.609 1.609 0 00-.586-.103l-.308-.002.002.865h.302zm.205 2.167c.346 0 .594-.058.736-.17a.474.474 0 00.198-.404c.001-.19-.061-.316-.201-.413-.164-.111-.415-.166-.758-.167l-.48.001-.001 1.154.506-.002zm-1.775 1.016l-.007-5.058 1.47-.003c.286 0 .562.018.825.06.312.048.598.172.85.366.287.217.433.536.432.945.003.212-.05.407-.147.581-.06.1-.125.191-.204.273.226.115.41.278.554.485.15.217.223.472.226.758.001.388-.121.71-.354.958a1.871 1.871 0 01-.857.501 3.82 3.82 0 01-1.012.131l-1.776.003z" fill="#88b620"/><path d="M69.898 26.288h.338c.307 0 .537.05.673.142.077.053.15.126.15.315 0 .138-.045.23-.153.313-.08.064-.257.14-.647.14h-.36l-.001-.91zm-.002-1.876l.164-.001a1.445 1.445 0 01.54.099s.03.034.031.157a.336.336 0 01-.115.267c-.07.06-.238.096-.46.097h-.158l-.002-.619zm.055-1.258h-1.61v.35l.005 4.604.002.105v.245h.397l1.516-.002a3.99 3.99 0 001.058-.136c.37-.104.68-.287.919-.542.258-.27.385-.616.387-1.035a1.432 1.432 0 00-.245-.82 1.558 1.558 0 00-.471-.455c.045-.06.09-.122.124-.186.108-.191.165-.405.163-.635.002-.447-.16-.796-.48-1.039a1.974 1.974 0 00-.913-.393 5.709 5.709 0 00-.852-.062m-.332 4.29h.642c.38 0 .662-.068.832-.202a.581.581 0 00.245-.495c-.002-.229-.083-.39-.258-.509-.187-.129-.47-.195-.844-.194h-.62l.003 1.4m-.003-2.167h.438c.311-.001.535-.059.662-.173a.555.555 0 00.194-.436c.001-.276-.12-.352-.206-.385a1.734 1.734 0 00-.643-.117h-.446l.001 1.111m.335-1.879c.278-.001.547.021.8.059.285.045.55.157.783.336.255.195.384.483.384.854 0 .19-.044.367-.135.526-.08.14-.183.261-.312.361.045.018.088.035.125.053.227.109.408.264.544.461.135.198.205.434.204.698 0 .358-.105.652-.32.876a1.679 1.679 0 01-.791.464 3.61 3.61 0 01-.97.125l-1.518.002h-.121l.001-.105-.002-4.602v-.107h1.328" fill="#fff"/><path d="M78.148 28.343l-.003-5.06 3.605-.002v1.012l-2.333.004.003.745 2.247-.002.001 1.012-2.25.004.005 1.272h2.33l.002 1.01-3.607.005z" fill="#88b620"/><path d="M81.889 23.159h-.4l-3.085.005-.12-.003-.28.003v.347l.005 4.604v.351h.28l.117-.001 3.091-.001.117-.002h.28v-.907l-.004-.106.001-.244-.277-.001H79.56l-.001-1.027 1.847-.002h.12l.282.001v-.245l-.002-.106v-.909l-.28.001h-.118l-1.852.002v-.5h2.052l.28-.003V23.16zm-.28.243v.768l-.118.001-2.212.001v.994l2.13-.002h.118v.766l-.118.001-2.13.003.002 1.517h2.214l.117-.001v.767h-.116l-3.087.003h-.12v-.105l-.004-4.604v-.106l.116.001 3.091-.002.117-.002z" fill="#fff"/><path d="M89.342 25.265c.594 0 .71-.185.709-.484.001-.197-.047-.321-.137-.361a1.342 1.342 0 00-.57-.12h-.558v.966l.556-.001zm-1.825 3.084l-.005-5.059 1.854-.004c.458 0 .886.089 1.269.26.466.209.702.624.702 1.234.005.613-.231 1.03-.7 1.24-.385.17-.81.259-1.268.259l-.58.001v2.066l-1.272.003z" fill="#88b620"/><path d="M88.925 24.424h.419c.182-.001.352.032.502.104.025.008.066.076.066.253.002.22-.038.363-.57.363l-.415.002-.002-.722zm.441-1.259l-1.594.004-.12-.001h-.278l-.002.243v.105l.007 4.603v.352h1.272l.28-.002.001-.244v-.104l-.003-1.72h.438c.48 0 .929-.093 1.333-.272.357-.16.78-.524.78-1.35 0-.82-.425-1.183-.781-1.344a3.247 3.247 0 00-1.333-.27m-.717 2.225l.692-.002c.599 0 .854-.183.85-.608.001-.25-.069-.405-.212-.47a1.476 1.476 0 00-.637-.132h-.696l.003 1.212m.717-1.981c.435 0 .843.085 1.205.246.416.188.628.565.629 1.125-.001.561-.213.944-.626 1.13-.365.161-.77.245-1.207.245l-.718.001.002 1.964-.001.105-.116-.001-.758.002h-.119v-.106l-.005-4.605v-.104h.119l1.595-.002" fill="#fff"/><path d="M99.269 28.343a3.574 3.574 0 01-1.126-.171 3.073 3.073 0 01-.964-.513 2.43 2.43 0 01-.661-.813 2.291 2.291 0 01-.239-1.04 2.25 2.25 0 01.213-.967c.14-.307.347-.581.612-.818a2.91 2.91 0 01.955-.557 3.475 3.475 0 011.204-.198c.361-.003.712.038 1.042.12.344.082.687.23 1.022.438l.153.1.003 1.384-.625-.505a2.463 2.463 0 00-1.579-.553c-.246 0-.479.043-.689.127a1.697 1.697 0 00-.555.342 1.69 1.69 0 00-.366.505 1.42 1.42 0 00-.125.58c.003.302.079.574.24.807.155.233.369.418.634.55.264.13.552.196.856.194a2.66 2.66 0 001.596-.544l.613-.463.002 1.345-.155.096c-.586.368-1.281.554-2.061.554" fill="#88b620"/><path d="M99.263 23.143a3.68 3.68 0 00-1.256.206c-.385.14-.723.336-1.002.586a2.626 2.626 0 00-.643.858 2.4 2.4 0 00-.22 1.012c0 .394.08.763.246 1.09.166.332.4.619.697.857.292.233.633.413 1.007.533.372.12.77.183 1.177.183.808-.003 1.53-.196 2.141-.578l.048-.03.049-.031.118-.071.002-.129v-.054l-.004-.733.001-.228-.001-.536-.461.352-.198.148-.186.142a2.506 2.506 0 01-.723.383c-.256.086-.52.133-.782.131a1.718 1.718 0 01-.785-.182 1.48 1.48 0 01-.588-.505 1.337 1.337 0 01-.101-1.279 1.534 1.534 0 01.848-.78 1.74 1.74 0 01.632-.115c.556 0 1.054.175 1.485.52l.19.155.198.161.47.38v-.799l-.002-.752.002-.054-.002-.126-.116-.073-.05-.03-.047-.03a3.634 3.634 0 00-1.062-.46 4.635 4.635 0 00-1.082-.122m0 .242c.347 0 .689.04 1.007.119.325.077.653.22.975.42l.05.031.047.029-.002.055.002.751v.236l-.2-.158-.19-.155a2.6 2.6 0 00-1.674-.587 2.088 2.088 0 00-.745.137 1.863 1.863 0 00-.6.373 1.769 1.769 0 00-.395.543c-.09.2-.134.409-.133.626-.002.321.087.615.257.869.168.251.402.452.685.592.286.143.598.215.927.214a2.84 2.84 0 001.688-.576l.183-.141.2-.148v1.015l-.048.029-.048.031c-.564.353-1.231.53-1.981.53a3.365 3.365 0 01-1.075-.165 2.857 2.857 0 01-.919-.485 2.284 2.284 0 01-.629-.772 2.228 2.228 0 01-.023-1.913c.135-.291.33-.552.58-.779.256-.225.558-.403.91-.53.348-.127.737-.19 1.15-.19" fill="#fff"/><path d="M62.192 28.304l-.001-2.989-2.966 2.993h-.665l-.007-5.04 1.273-.003.004 2.848 2.827-2.85.803-.002.006 5.043h-1.274z" fill="#88b620"/><path d="M63.599 23.14h-1.006l-.084.084-.035.036-2.505 2.527-.004-2.295v-.349h-.279l-.118.001-.755-.001-.118.001-.28.001v.348l.004 4.589v.105l.001.243.279.002h.119l.286-.002h.054l.128-.002.085-.084.035-.036 2.643-2.665.002 2.436v.104l-.002.244.282-.002.12.002.753-.002.12.002.281-.002v-.35L63.6 23.49l.001-.105-.001-.245zm-.283.245l.002.104.006 4.589v.104l-.119-.002h-.874v-.102l-.003-3.09-3.134 3.16-.036.037h-.054l-.285.002-.12-.002.001-.105-.006-4.586v-.104h.991l.003.103.002 2.946 2.996-3.017.035-.038.052.001h.543z" fill="#fff"/><path d="M40.64 28.31l.908-1.647-2.157-3.404 1.452-.003 1.369 2.22 1.215-2.222h1.362l-2.787 5.054-1.361.001z" fill="#88b620"/><path d="M45.014 23.13l-.447.002-.19.001-.79-.002-.073.002-.175-.001-.078.137-.032.062-1.027 1.877-1.163-1.892-.035-.053-.08-.129h-1.298l-.474.003.23.362.1.155 1.91 3.014-.697 1.263-.084.15-.195.352h.446l.192-.001.785-.001h.251l.076-.14.033-.058 2.54-4.601.08-.15.195-.353zm-.447.247l-.083.149-2.538 4.6-.032.058h-.075l-.785.003-.192-.001.08-.15.763-1.378-1.98-3.122-.098-.155.202-.002h.93l.033.054 1.427 2.314 1.262-2.311.034-.06h1.052z" fill="#fff"/><path d="M119.945 28.353l-.39-2.565-1.443 2.54h-.595l-1.445-2.535-.39 2.567-1.24-.002.778-5.077h.742l1.85 3.254 1.84-3.26h.743l.795 5.077-1.245.001z" fill="#88b620"/><path d="M120.518 23.154h-.953l-.076.135-.031.06-1.645 2.912-1.65-2.91-.034-.058-.077-.136-.177.001h-.071l-.357.001h-.348l-.032.213-.015.09-.71 4.624-.018.12-.042.277.32-.001h.135l.718-.001h.104l.245-.002.035-.21.014-.092.295-1.971 1.171 2.05.033.06.077.136.174-.001h.422l.175-.003.077-.135.03-.057 1.167-2.053.304 1.97.015.089.03.216.247-.002h1.279l-.044-.28-.02-.12-.717-4.62-.018-.092-.032-.21zm-.244.244l.014.09.721 4.624.019.119-.136-.002-.72.003-.104-.001-.014-.09-.421-2.764-1.575 2.771-.033.058h-.071l-.276-.002h-.074l-.035-.056-1.579-2.767-.416 2.765-.014.09h-.105l-.718.002-.137-.001.019-.118.711-4.626.012-.091.105.001.356-.001.075.001.034.056 1.902 3.354 1.894-3.357.032-.06h.074l.356.002h.104zm-11.577-.119h-.695l-2.62 5.049 1.365-.004.735-1.45 1.738-.001.739 1.45 1.364-.002-2.626-5.042zm-.085.141l2.48 4.76-1.048.001-.699-1.372-.04-.075-.083-.001-1.74.002-.087-.001-.036.077-.697 1.374-1.05.003 2.477-4.77.523.002z" fill="#fff"/><path d="M108.782 23.157h-.874l-.074.145-.032.06-2.384 4.593-.079.149-.178.346h.617l.796-.003h.258l.074-.143.03-.063.63-1.246 1.555-.001.636 1.243.032.062.075.145h1.668l-.179-.347-.076-.147-2.389-4.59-.031-.058-.075-.145zm-.18.245l.031.062 2.389 4.587.076.148h-1.054l-.032-.062-.708-1.387-1.918.001-.703 1.39-.032.061-.078.002h-.979l.077-.15 2.385-4.59.032-.062h.514z" fill="#fff"/><path d="M107.774 25.897l.577-1.13.574 1.13h-1.151zm.88-2.55l-.608.004-2.55 4.905h1.208l.735-1.451 1.822-.003.74 1.45 1.206-.001-2.553-4.904z" fill="#88b620"/><path d="M108.35 24.46l-.25.49-.348.68-.208.408h.46l.693-.003.457.002-.205-.407-.352-.682-.247-.488zm0 .615l.346.68-.695.004.349-.684z" fill="#fff"/></svg>